<svg xmlns="http://www.w3.org/2000/svg" width="225" height="225" viewBox="0 0 225 225">
<g>
<path d="M 53.08 221.25 L 52.21 225.00 L 50.71 225.00 L 51.85 213.69 C52.48,207.47 53.00,198.92 53.00,194.69 C53.00,188.20 52.74,187.00 51.35,187.00 C44.90,187.00 31.55,175.92 26.82,166.65 C20.07,153.41 26.65,132.11 40.07,123.76 C42.78,122.08 45.00,120.21 44.99,119.60 C44.98,119.00 44.31,116.29 43.49,113.59 C42.67,110.89 42.00,107.54 42.00,106.14 C42.00,104.62 40.69,102.24 38.75,100.24 C35.70,97.09 35.48,96.39 35.15,88.60 C34.74,78.80 36.30,74.32 44.68,61.23 C47.60,56.69 51.37,49.94 53.07,46.23 C58.39,34.67 60.07,31.66 64.24,26.22 C72.94,14.88 80.01,11.96 93.71,14.03 C102.48,15.36 105.32,16.57 112.55,22.09 C123.06,30.09 130.31,31.12 142.07,26.27 C151.88,22.23 156.55,21.58 165.26,23.03 C182.03,25.83 187.55,32.59 192.44,56.28 C193.82,63.00 196.09,72.28 197.47,76.91 C198.86,81.53 200.52,88.96 201.16,93.43 C202.24,100.87 202.15,102.13 200.15,108.73 C198.44,114.35 197.24,116.48 194.64,118.46 C192.81,119.86 190.80,121.00 190.18,121.00 C188.78,121.00 181.28,130.36 179.21,134.69 C177.73,137.78 177.78,137.98 180.72,141.34 C190.36,152.32 192.21,166.84 185.73,180.79 C181.22,190.52 169.24,198.71 158.06,199.73 L 152.46 200.24 L 149.16 209.87 C147.35,215.17 145.48,220.74 145.00,222.25 L 144.14 225.00 L 141.83 225.00 L 145.56 213.75 C147.62,207.56 149.47,202.01 149.69,201.42 C149.91,200.83 148.15,199.78 145.79,199.08 C143.43,198.39 139.53,196.74 137.12,195.41 C134.72,194.09 132.58,193.00 132.37,193.00 C132.17,193.00 131.99,194.24 131.98,195.75 C131.92,203.35 124.47,211.74 115.32,214.51 C102.68,218.35 80.33,214.20 70.90,206.26 C67.28,203.22 63.02,194.85 63.01,190.75 C63.00,188.23 62.68,188.00 59.15,188.00 L 55.31 188.00 L 54.62 202.75 C54.25,210.86 53.55,219.19 53.08,221.25 ZM 144.00 196.34 C159.72,201.82 177.44,193.96 184.81,178.24 C188.66,170.03 188.64,158.87 184.77,150.96 C181.54,144.36 178.00,140.28 172.22,136.49 L 167.93 133.69 L 164.85 136.84 C163.15,138.58 161.20,140.00 160.51,140.00 C159.33,140.00 157.93,143.87 157.43,148.50 C157.31,149.60 156.70,152.52 156.06,155.00 C155.42,157.48 154.76,160.63 154.59,162.01 C154.42,163.40 154.01,165.42 153.68,166.51 C153.34,167.61 152.81,170.06 152.48,171.97 C151.19,179.61 149.79,177.09 149.33,166.27 C148.69,151.33 148.16,148.72 145.87,149.32 C144.28,149.74 144.11,149.57 145.02,148.48 C145.96,147.34 145.65,147.31 143.14,148.26 C141.48,148.88 140.32,149.70 140.55,150.08 C141.16,151.06 121.10,150.30 111.00,148.97 C106.32,148.35 99.12,146.92 95.00,145.80 C87.42,143.74 76.68,138.90 75.51,137.02 C75.17,136.46 74.46,136.00 73.94,136.00 C72.45,136.00 72.84,138.16 74.75,140.40 C76.42,142.37 76.42,142.40 74.73,141.09 C72.62,139.46 72.22,139.76 71.06,143.79 C70.08,147.20 70.48,148.00 73.17,148.00 C74.67,148.00 75.00,148.80 75.00,152.42 C75.00,159.02 74.35,160.00 69.95,160.00 C66.25,160.00 66.11,160.12 65.81,163.75 L 65.50 167.50 L 54.50 167.50 L 54.20 163.31 C53.90,159.26 53.76,159.10 50.20,158.81 L 46.50 158.50 L 46.20 152.81 L 45.90 147.12 L 50.20 146.81 C54.38,146.51 54.51,146.40 54.81,142.75 C55.11,139.13 55.25,139.00 58.92,139.00 L 62.72 139.00 L 63.31 133.33 C63.83,128.29 63.60,127.24 61.19,123.80 C58.58,120.05 58.36,119.95 54.00,120.56 C37.49,122.87 24.61,139.42 26.35,156.08 C28.02,172.04 40.71,184.55 57.20,186.47 L 62.89 187.13 L 64.92 183.16 C69.38,174.41 73.84,173.39 89.82,177.48 C95.34,178.89 104.78,180.32 111.80,180.81 L 124.10 181.67 L 128.80 186.18 C134.87,192.01 138.45,194.40 144.00,196.34 ZM 111.27 147.01 C126.31,148.67 141.43,146.44 152.87,140.86 C172.85,131.12 175.76,113.46 159.86,98.43 C153.73,92.65 147.89,89.02 140.00,86.10 C108.37,74.41 70.64,81.11 60.93,100.14 C58.16,105.57 58.36,113.80 61.40,119.80 C67.90,132.64 89.92,144.64 111.27,147.01 ZM 170.51 127.80 C169.77,130.01 169.93,129.98 174.33,127.01 C176.86,125.30 181.98,122.53 185.71,120.86 C195.16,116.61 196.59,115.01 198.60,106.48 C200.27,99.43 200.25,98.88 198.26,89.35 C197.13,83.93 195.45,76.80 194.52,73.50 C193.59,70.20 191.74,62.33 190.42,56.00 C187.25,40.87 183.32,32.79 177.27,28.96 C167.87,23.00 155.32,22.67 142.73,28.07 C134.54,31.57 126.69,32.17 120.96,29.72 C119.06,28.91 114.46,25.99 110.75,23.22 C103.09,17.52 97.31,15.71 86.48,15.61 C80.83,15.56 78.74,16.00 75.75,17.85 C69.27,21.85 63.22,29.89 56.81,43.00 C53.46,49.88 48.76,58.46 46.38,62.08 C39.41,72.66 36.77,79.28 36.73,86.34 C36.71,89.73 37.01,93.50 37.41,94.73 C38.02,96.63 54.98,112.00 56.48,112.00 C56.76,112.00 57.00,109.96 57.00,107.46 C57.00,104.95 57.86,101.23 58.93,99.14 C61.09,94.91 67.26,88.95 72.05,86.47 L 75.23 84.83 L 72.23 81.67 C68.00,77.21 66.20,73.19 64.82,65.15 C62.85,53.67 66.22,40.83 73.47,32.22 C76.79,28.28 85.38,24.00 89.98,24.00 C98.54,24.00 107.40,31.97 110.42,42.38 C113.40,52.62 111.85,66.52 106.82,74.75 L 104.84 78.00 L 109.67 78.00 C112.33,78.00 118.32,78.68 123.00,79.50 C134.32,81.49 134.33,81.49 132.90,78.81 C131.00,75.27 131.42,59.09 133.56,53.39 C138.61,39.87 146.59,33.00 157.21,33.00 C164.43,33.01 168.25,34.84 172.42,40.31 C182.86,53.99 180.52,78.89 167.69,90.71 C165.31,92.92 162.71,94.93 161.93,95.20 C160.89,95.56 161.62,96.91 164.59,100.15 C170.11,106.17 172.31,112.18 171.73,119.64 C171.49,122.86 170.93,126.54 170.51,127.80 ZM 154.60 91.37 C156.72,92.82 158.95,94.00 159.54,94.00 C161.28,94.00 166.97,89.42 169.68,85.83 C175.13,78.62 176.38,74.30 176.44,62.50 C176.50,52.14 176.33,51.19 173.55,46.18 C169.52,38.89 165.32,35.42 159.47,34.55 C155.38,33.93 153.93,34.23 149.19,36.67 C139.13,41.84 132.06,56.52 133.39,69.50 C134.51,80.39 135.28,81.61 143.47,85.39 C147.47,87.24 152.47,89.93 154.60,91.37 ZM 74.76 82.03 C76.94,83.74 77.54,83.80 80.43,82.60 C82.20,81.85 88.06,80.45 93.44,79.48 L 103.24 77.72 L 106.31 71.16 C112.25,58.46 110.94,41.96 103.28,33.02 C94.78,23.08 82.84,23.94 74.01,35.11 C68.60,41.95 66.50,48.67 66.54,59.00 C66.57,66.19 67.02,68.47 69.45,73.80 C71.03,77.27 73.42,80.97 74.76,82.03 ZM 90.50 212.57 C93.91,213.36 100.38,213.84 105.50,213.68 C113.23,213.45 115.24,213.01 119.78,210.54 C130.23,204.83 133.21,193.04 125.96,186.11 C123.16,183.44 122.44,183.28 110.76,182.69 C102.25,182.27 95.75,181.31 89.50,179.55 C79.09,176.63 74.34,176.37 71.22,178.56 C65.88,182.30 64.37,191.88 67.99,198.99 C69.98,202.88 76.29,208.00 81.67,210.09 C83.23,210.69 87.20,211.81 90.50,212.57 ZM 101.80 75.74 C100.20,77.67 93.58,77.30 91.65,75.17 C89.23,72.49 89.53,67.45 92.22,65.56 C95.73,63.10 100.66,63.55 102.59,66.49 C104.27,69.06 103.91,73.19 101.80,75.74 ZM 149.30 79.81 C146.55,83.51 140.85,84.06 138.60,80.83 C135.44,76.33 136.73,71.57 141.54,69.99 C145.75,68.60 148.26,69.79 150.01,74.03 C151.15,76.77 151.06,77.44 149.30,79.81 ZM 46.49 117.61 C46.94,119.58 47.30,119.65 51.93,118.74 C56.78,117.78 56.85,117.71 55.42,115.51 C53.68,112.87 43.99,104.51 44.02,105.69 C44.05,106.40 44.96,110.82 46.49,117.61 ZM 65.09 144.00 L 65.15 154.50 L 68.56 144.57 C70.44,139.11 71.87,134.61 71.74,134.56 C71.61,134.52 70.46,133.60 69.19,132.53 C65.76,129.64 65.02,131.70 65.09,144.00 ZM 151.00 160.15 C151.00,164.50 152.64,163.55 153.40,158.75 C153.77,156.41 154.67,151.80 155.40,148.50 C156.12,145.20 156.60,142.35 156.45,142.18 C156.31,142.00 154.73,142.60 152.96,143.52 C149.74,145.19 149.74,145.19 150.37,151.24 C150.72,154.57 151.00,158.58 151.00,160.15 ZM 110.93 166.85 C108.15,168.58 105.78,169.99 105.68,169.97 C104.55,169.78 102.00,167.68 102.00,166.94 C102.00,165.39 113.01,158.79 114.57,159.39 C117.55,160.53 116.00,163.70 110.93,166.85 ZM 93.57 164.40 C89.11,167.02 86.89,167.56 85.67,166.33 C84.07,164.74 85.32,162.80 89.75,160.02 C95.65,156.32 98.00,156.14 98.00,159.40 C98.00,161.19 96.86,162.48 93.57,164.40 ZM 172.65 134.53 C175.35,136.58 175.54,136.47 178.90,131.00 C182.35,125.40 181.75,124.87 176.06,128.46 C171.05,131.63 170.38,132.81 172.65,134.53 Z" fill="rgb(18,14,11)"/>
<path d="M 132.45 168.55 C135.70,171.79 138.60,171.64 144.43,167.94 L 149.26 164.88 L 148.78 157.42 C148.66,155.68 148.51,154.02 148.34,152.66 C148.77,155.21 149.04,159.45 149.33,166.27 C149.79,177.09 151.19,179.61 152.48,171.97 C152.81,170.06 153.34,167.61 153.68,166.51 C154.01,165.42 154.42,163.40 154.59,162.01 C154.76,160.63 155.42,157.48 156.06,155.00 C156.70,152.52 157.31,149.60 157.43,148.50 C157.93,143.87 159.33,140.00 160.51,140.00 C161.20,140.00 163.15,138.58 164.85,136.84 L 167.93 133.69 L 171.42 135.97 C169.90,135.22 168.56,134.95 167.57,135.34 C165.13,136.27 165.69,137.31 169.96,139.75 C182.73,147.04 187.21,167.21 179.02,180.47 C170.06,194.96 149.24,198.93 135.82,188.69 C126.98,181.95 123.44,173.66 124.22,161.50 L 124.70 154.00 L 116.96 154.00 C108.46,154.00 96.43,151.99 86.46,148.92 C82.92,147.82 79.89,147.06 79.74,147.21 C79.58,147.37 78.16,146.49 76.59,145.25 C73.33,142.68 71.64,142.43 70.88,144.44 C70.94,144.24 70.99,144.02 71.06,143.79 C72.22,139.76 72.62,139.46 74.73,141.09 C76.42,142.40 76.42,142.37 74.75,140.40 C72.84,138.16 72.45,136.00 73.94,136.00 C74.46,136.00 75.17,136.46 75.51,137.02 C76.68,138.90 87.42,143.74 95.00,145.80 C99.12,146.92 106.32,148.35 111.00,148.97 C121.10,150.30 141.16,151.06 140.55,150.08 C140.32,149.70 141.48,148.88 143.14,148.26 C145.65,147.31 145.96,147.34 145.02,148.48 C144.11,149.57 144.28,149.74 145.87,149.32 C146.29,149.21 146.66,149.21 146.97,149.38 C144.13,150.28 134.07,157.10 131.96,159.78 C129.35,163.10 129.49,165.58 132.45,168.55 ZM 53.08 221.25 C53.55,219.19 54.25,210.86 54.62,202.75 L 55.31 188.00 L 59.15 188.00 C62.68,188.00 63.00,188.23 63.01,190.75 C63.02,194.85 67.28,203.22 70.90,206.26 C80.33,214.20 102.68,218.35 115.32,214.51 C120.94,212.81 125.91,208.99 128.93,204.54 C127.95,206.15 126.79,207.68 125.51,209.00 C122.26,212.36 118.00,220.62 118.00,223.58 C118.00,224.73 120.30,225.00 129.92,225.00 L 52.21 225.00 ZM 146.45 182.55 C147.80,183.90 150.01,185.00 151.36,185.00 C152.71,185.00 158.54,181.88 164.38,178.04 C172.31,172.81 175.11,170.39 175.63,168.35 C176.51,164.85 174.27,160.82 170.77,159.59 C168.49,158.79 167.04,159.30 160.80,163.15 C155.87,166.18 153.40,168.35 153.18,169.82 C152.98,171.17 153.39,172.00 154.26,172.00 C156.36,172.00 158.35,176.45 157.60,179.47 C156.31,184.59 148.32,184.69 146.53,179.60 C145.78,177.46 145.96,176.12 147.37,173.67 L 149.18 170.50 L 146.59 172.92 C143.34,175.97 143.29,179.38 146.45,182.55 ZM 142.00 168.00 C139.74,170.26 138.37,170.43 135.50,168.81 C132.88,167.32 132.03,165.98 132.02,163.29 C132.00,160.68 135.61,157.00 138.19,157.00 C140.80,157.00 144.00,160.58 144.00,163.50 C144.00,164.88 143.10,166.90 142.00,168.00 ZM 172.17 171.35 C166.88,176.13 159.53,169.41 163.48,163.39 C165.32,160.58 170.01,160.15 172.43,162.57 C174.55,164.69 174.41,169.31 172.17,171.35 ZM 46.49 117.61 C44.96,110.82 44.05,106.40 44.02,105.69 C43.99,104.51 53.68,112.87 55.42,115.51 C56.85,117.71 56.78,117.78 51.93,118.74 C47.30,119.65 46.94,119.58 46.49,117.61 ZM 62.97 136.61 C62.78,135.48 61.76,134.70 59.75,134.12 C57.96,133.60 57.26,133.14 58.20,133.09 C59.75,133.01 59.77,132.69 58.45,129.53 C57.65,127.62 57.00,124.68 57.00,122.99 C57.00,121.25 56.97,120.50 56.24,120.30 C58.56,120.15 59.13,120.83 61.19,123.80 C63.60,127.24 63.83,128.29 63.31,133.33 L 62.97 136.61 ZM 157.39 157.68 C155.80,158.95 155.08,159.99 155.80,160.00 C156.51,160.00 158.20,158.90 159.55,157.55 C162.64,154.45 162.77,149.99 159.83,147.40 C157.69,145.53 157.67,145.53 158.47,147.50 C160.62,152.80 160.35,155.31 157.39,157.68 ZM 108.94 63.46 C108.33,66.12 107.45,68.71 106.31,71.16 L 106.24 71.30 L 103.24 77.72 L 93.44 79.48 C93.08,79.55 92.72,79.62 92.36,79.68 C95.21,78.88 95.11,77.87 92.71,75.99 C92.67,75.96 92.64,75.93 92.60,75.90 C94.73,77.10 98.63,77.36 100.73,76.48 C100.72,76.48 100.71,76.49 100.70,76.50 L 98.55 78.00 L 100.83 78.00 C102.66,78.00 103.72,76.68 106.24,71.30 C107.43,68.75 108.33,66.12 108.94,63.46 ZM 177.28 160.65 C177.10,161.21 177.63,161.67 178.47,161.67 C179.31,161.67 180.00,161.03 180.00,160.25 C180.00,158.69 177.83,159.01 177.28,160.65 ZM 187.32 159.50 C188.13,165.08 187.58,171.10 185.65,176.25 C186.91,172.71 187.49,168.86 187.49,164.50 C187.48,162.49 187.44,160.88 187.32,159.50 ZM 86.47 26.49 C82.12,27.67 77.33,30.91 74.01,35.11 C77.77,30.35 82.09,27.47 86.47,26.49 ZM 104.63 34.76 C109.06,41.09 110.82,50.28 109.69,59.27 C110.83,50.11 108.84,41.09 104.63,34.76 ZM 53.25 120.58 C54.80,120.30 55.71,120.15 56.24,120.30 C55.63,120.34 54.91,120.43 54.00,120.56 C49.44,121.20 45.16,122.92 41.39,125.43 C31.45,132.08 25.10,144.07 26.35,156.07 C25.09,144.01 31.49,132.01 41.39,125.43 C44.95,123.05 48.96,121.35 53.25,120.58 ZM 176.58 139.78 C179.67,142.51 182.02,145.63 184.18,149.80 C182.20,146.04 179.40,142.46 176.58,139.78 ZM 90.73 73.79 C89.52,71.80 89.54,69.58 90.53,67.76 C89.78,69.59 89.82,71.93 90.73,73.79 ZM 88.77 80.41 C85.02,81.21 81.69,82.07 80.43,82.60 C79.47,83.00 78.76,83.26 78.17,83.36 C78.79,83.25 79.53,82.97 80.56,82.54 C82.41,81.77 85.89,80.84 88.30,80.48 C88.46,80.45 88.62,80.43 88.77,80.41 ZM 62.82 138.08 L 62.72 139.00 L 59.06 139.00 C61.44,139.00 62.45,138.82 62.82,138.08 ZM 144.00 196.34 C150.14,198.48 156.95,198.54 163.24,196.80 C157.05,198.59 150.36,198.55 144.00,196.34 ZM 103.40 68.36 C104.01,70.31 103.82,72.57 102.66,74.43 C103.63,72.58 103.90,70.30 103.40,68.36 ZM 62.82 138.08 L 62.97 136.61 C62.99,136.75 63.00,136.89 63.00,137.03 C63.00,137.47 62.95,137.81 62.82,138.08 ZM 98.13 64.01 C98.96,64.07 99.70,64.28 100.36,64.62 C99.68,64.30 98.92,64.10 98.13,64.01 ZM 131.95 196.50 C131.97,196.25 131.98,196.00 131.98,195.75 C131.98,195.16 132.01,194.61 132.06,194.16 C132.02,194.55 132.00,195.03 132.00,195.53 C132.00,195.84 131.98,196.17 131.95,196.50 ZM 71.49 147.79 C71.90,147.94 72.46,148.00 73.17,148.00 C72.45,148.00 71.89,147.94 71.49,147.79 ZM 184.71 150.83 C184.73,150.87 184.75,150.92 184.77,150.96 C184.83,151.09 184.89,151.21 184.95,151.34 C184.87,151.17 184.79,151.00 184.71,150.83 Z" fill="rgb(123,110,71)"/>
<path d="M 0.00 0.00 L 225.00 0.00 L 225.00 225.00 L 144.14 225.00 L 145.00 222.25 C145.48,220.74 147.35,215.17 149.16,209.87 L 152.46 200.24 L 158.06 199.73 C169.24,198.71 181.22,190.52 185.73,180.79 C192.21,166.84 190.36,152.32 180.72,141.34 C177.78,137.98 177.73,137.78 179.21,134.69 C181.28,130.36 188.78,121.00 190.18,121.00 C190.80,121.00 192.81,119.86 194.64,118.46 C197.24,116.48 198.44,114.35 200.15,108.73 C202.15,102.13 202.24,100.87 201.16,93.43 C200.52,88.96 198.86,81.53 197.47,76.91 C196.09,72.28 193.82,63.00 192.44,56.28 C187.55,32.59 182.03,25.83 165.26,23.03 C156.55,21.58 151.88,22.23 142.07,26.27 C130.31,31.12 123.06,30.09 112.55,22.09 C105.32,16.57 102.48,15.36 93.71,14.03 C80.01,11.96 72.94,14.88 64.24,26.22 C60.07,31.66 58.39,34.67 53.07,46.23 C51.37,49.94 47.60,56.69 44.68,61.23 C36.30,74.32 34.74,78.80 35.15,88.60 C35.48,96.39 35.70,97.09 38.75,100.24 C40.69,102.24 42.00,104.62 42.00,106.14 C42.00,107.54 42.67,110.89 43.49,113.59 C44.31,116.29 44.98,119.00 44.99,119.60 C45.00,120.21 42.78,122.08 40.07,123.76 C26.65,132.11 20.07,153.41 26.82,166.65 C31.55,175.92 44.90,187.00 51.35,187.00 C52.74,187.00 53.00,188.20 53.00,194.69 C53.00,198.92 52.48,207.47 51.85,213.69 L 50.71 225.00 L 0.00 225.00 ZM 144.00 196.34 C138.45,194.40 134.87,192.01 128.80,186.18 L 124.10 181.67 L 111.80 180.81 C104.78,180.32 95.34,178.89 89.82,177.48 C73.84,173.39 69.38,174.41 64.92,183.16 L 62.89 187.13 L 57.20 186.47 C40.71,184.55 28.02,172.04 26.35,156.08 L 26.35 156.07 C26.35,156.05 26.35,156.04 26.34,156.02 C25.12,144.03 31.47,132.07 41.39,125.43 C45.16,122.92 49.44,121.20 54.00,120.56 C54.91,120.43 55.63,120.34 56.24,120.30 C56.97,120.50 57.00,121.25 57.00,122.99 C57.00,124.68 57.65,127.62 58.45,129.53 C59.77,132.69 59.75,133.01 58.20,133.09 C57.26,133.14 57.96,133.60 59.75,134.12 C61.76,134.70 62.78,135.48 62.97,136.61 L 62.82 138.08 C62.45,138.82 61.44,139.00 59.06,139.00 L 58.92 139.00 C55.25,139.00 55.11,139.13 54.81,142.75 C54.51,146.40 54.38,146.51 50.20,146.81 L 45.90 147.12 L 46.20 152.81 L 46.50 158.50 L 50.20 158.81 C53.76,159.10 53.90,159.26 54.20,163.31 L 54.50 167.50 L 65.50 167.50 L 65.81 163.75 C66.11,160.12 66.25,160.00 69.95,160.00 C74.35,160.00 75.00,159.02 75.00,152.42 C75.00,148.80 74.67,148.00 73.17,148.00 C72.45,148.00 71.89,147.94 71.49,147.79 L 71.49 147.79 C70.47,147.42 70.36,146.49 70.88,144.44 C71.64,142.43 73.33,142.68 76.59,145.25 C78.16,146.49 79.58,147.37 79.74,147.21 C79.89,147.06 82.92,147.82 86.46,148.92 C96.43,151.99 108.46,154.00 116.96,154.00 L 124.70 154.00 L 124.22 161.50 C123.44,173.66 126.98,181.95 135.82,188.69 C149.24,198.93 170.06,194.96 179.02,180.47 C187.21,167.21 182.73,147.04 169.96,139.75 C165.69,137.31 165.13,136.27 167.57,135.34 C168.56,134.95 169.90,135.22 171.42,135.97 L 172.22 136.49 C173.83,137.55 175.27,138.63 176.58,139.78 C179.40,142.46 182.20,146.04 184.18,149.80 C184.36,150.14 184.53,150.48 184.71,150.83 C184.79,151.00 184.87,151.17 184.95,151.34 C186.11,153.82 186.90,156.60 187.32,159.50 C187.44,160.88 187.48,162.49 187.49,164.50 C187.49,168.86 186.91,172.71 185.65,176.25 C185.39,176.93 185.11,177.59 184.81,178.24 C180.42,187.60 172.36,194.18 163.24,196.80 C156.95,198.54 150.14,198.48 144.00,196.34 ZM 154.60 91.37 C152.47,89.93 147.47,87.24 143.47,85.39 C135.28,81.61 134.51,80.39 133.39,69.50 C132.06,56.52 139.13,41.84 149.19,36.67 C153.93,34.23 155.38,33.93 159.47,34.55 C165.32,35.42 169.52,38.89 173.55,46.18 C176.33,51.19 176.50,52.14 176.44,62.50 C176.38,74.30 175.13,78.62 169.68,85.83 C166.97,89.42 161.28,94.00 159.54,94.00 C158.95,94.00 156.72,92.82 154.60,91.37 ZM 74.76 82.03 C73.42,80.97 71.03,77.27 69.45,73.80 C67.02,68.47 66.57,66.19 66.54,59.00 C66.50,48.67 68.60,41.95 74.01,35.11 C77.77,30.35 82.09,27.47 86.47,26.49 C92.38,25.17 98.40,27.31 103.28,33.02 C103.75,33.57 104.20,34.15 104.63,34.76 C108.84,41.09 110.83,50.11 109.69,59.27 C109.51,60.67 109.26,62.08 108.94,63.46 L 108.94 63.47 C108.33,66.12 107.43,68.75 106.24,71.30 C103.72,76.68 102.66,78.00 100.83,78.00 L 98.55 78.00 L 100.70 76.50 C100.71,76.49 100.72,76.48 100.73,76.48 C101.18,76.29 101.55,76.04 101.80,75.74 C102.13,75.34 102.42,74.90 102.66,74.43 C103.82,72.57 104.01,70.31 103.40,68.36 C103.22,67.69 102.95,67.05 102.59,66.49 C102.05,65.67 101.27,65.04 100.36,64.62 C99.70,64.28 98.96,64.07 98.13,64.01 C96.18,63.80 94.02,64.30 92.22,65.56 C91.47,66.08 90.90,66.86 90.53,67.76 C89.54,69.58 89.52,71.80 90.73,73.79 C90.98,74.30 91.28,74.76 91.65,75.17 C91.90,75.44 92.22,75.69 92.60,75.90 C92.64,75.93 92.67,75.96 92.71,75.99 C95.11,77.87 95.21,78.88 92.36,79.68 C91.15,79.91 89.94,80.16 88.77,80.41 C88.62,80.43 88.46,80.45 88.30,80.48 C85.89,80.84 82.41,81.77 80.56,82.54 C79.53,82.97 78.79,83.25 78.17,83.36 L 78.17 83.36 C76.97,83.58 76.22,83.17 74.76,82.03 ZM 146.45 182.55 C143.29,179.38 143.34,175.97 146.59,172.92 L 149.18 170.50 L 147.37 173.67 C145.96,176.12 145.78,177.46 146.53,179.60 C148.32,184.69 156.31,184.59 157.60,179.47 C158.35,176.45 156.36,172.00 154.26,172.00 C153.39,172.00 152.98,171.17 153.18,169.82 C153.40,168.35 155.87,166.18 160.80,163.15 C167.04,159.30 168.49,158.79 170.77,159.59 C174.27,160.82 176.51,164.85 175.63,168.35 C175.11,170.39 172.31,172.81 164.38,178.04 C158.54,181.88 152.71,185.00 151.36,185.00 C150.01,185.00 147.80,183.90 146.45,182.55 ZM 132.45 168.55 C129.49,165.58 129.35,163.10 131.96,159.78 C134.07,157.10 144.13,150.28 146.97,149.38 C147.58,149.70 148.01,150.66 148.34,152.66 C148.51,154.02 148.66,155.68 148.78,157.42 L 149.26 164.88 L 144.43 167.94 C138.60,171.64 135.70,171.79 132.45,168.55 ZM 149.30 79.81 C151.06,77.44 151.15,76.77 150.01,74.03 C148.26,69.79 145.75,68.60 141.54,69.99 C136.73,71.57 135.44,76.33 138.60,80.83 C140.85,84.06 146.55,83.51 149.30,79.81 ZM 142.00 168.00 C143.10,166.90 144.00,164.88 144.00,163.50 C144.00,160.58 140.80,157.00 138.19,157.00 C135.61,157.00 132.00,160.68 132.02,163.29 C132.03,165.98 132.88,167.32 135.50,168.81 C138.37,170.43 139.74,170.26 142.00,168.00 ZM 172.17 171.35 C174.41,169.31 174.55,164.69 172.43,162.57 C170.01,160.15 165.32,160.58 163.48,163.39 C159.53,169.41 166.88,176.13 172.17,171.35 ZM 65.09 144.00 C65.02,131.70 65.76,129.64 69.19,132.53 C70.46,133.60 71.61,134.52 71.74,134.56 C71.87,134.61 70.44,139.11 68.56,144.57 L 65.15 154.50 ZM 151.00 160.15 C151.00,158.58 150.72,154.57 150.37,151.24 C149.74,145.19 149.74,145.19 152.96,143.52 C154.73,142.60 156.31,142.00 156.45,142.18 C156.60,142.35 156.12,145.20 155.40,148.50 C154.67,151.80 153.77,156.41 153.40,158.75 C152.64,163.55 151.00,164.50 151.00,160.15 ZM 110.93 166.85 C116.00,163.70 117.55,160.53 114.57,159.39 C113.01,158.79 102.00,165.39 102.00,166.94 C102.00,167.68 104.55,169.78 105.68,169.97 C105.78,169.99 108.15,168.58 110.93,166.85 ZM 93.57 164.40 C96.86,162.48 98.00,161.19 98.00,159.40 C98.00,156.14 95.65,156.32 89.75,160.02 C85.32,162.80 84.07,164.74 85.67,166.33 C86.89,167.56 89.11,167.02 93.57,164.40 ZM 194.75 110.03 C192.33,113.60 189.98,114.99 190.03,112.83 C190.05,112.10 191.62,108.80 193.52,105.50 L 196.97 99.50 L 196.99 103.10 C196.99,105.20 196.06,108.09 194.75,110.03 ZM 163.13 104.77 C164.01,106.40 164.05,107.35 163.28,108.12 C162.50,108.90 161.17,107.70 158.58,103.85 C155.55,99.36 155.24,98.44 156.65,98.14 C158.30,97.80 160.69,100.24 163.13,104.77 ZM 157.39 157.68 C160.35,155.31 160.62,152.80 158.47,147.50 C157.67,145.53 157.69,145.53 159.83,147.40 C162.77,149.99 162.64,154.45 159.55,157.55 C158.20,158.90 156.51,160.00 155.80,160.00 C155.08,159.99 155.80,158.95 157.39,157.68 ZM 179.56 33.45 C180.44,34.80 181.02,36.63 180.83,37.51 C180.57,38.76 179.77,38.37 177.25,35.77 C173.48,31.87 173.25,31.00 175.98,31.00 C177.06,31.00 178.68,32.10 179.56,33.45 ZM 123.45 188.94 C124.39,189.98 125.01,191.88 124.83,193.15 C124.50,195.46 124.49,195.45 122.25,192.60 C121.01,191.02 120.00,189.37 120.00,188.92 C120.00,187.15 121.83,187.15 123.45,188.94 ZM 118.00 37.70 C118.00,39.06 115.81,39.48 114.67,38.33 C113.73,37.40 113.83,34.00 114.80,34.00 C116.05,34.00 118.00,36.26 118.00,37.70 ZM 177.28 160.65 C177.83,159.01 180.00,158.69 180.00,160.25 C180.00,161.03 179.31,161.67 178.47,161.67 C177.63,161.67 177.10,161.21 177.28,160.65 Z" fill="rgb(248,248,246)"/>
<path d="M 118.00 223.58 C118.00,220.62 122.26,212.36 125.51,209.00 C129.25,205.14 132.00,199.44 132.00,195.53 C132.00,194.14 132.17,193.00 132.37,193.00 C132.58,193.00 134.72,194.09 137.12,195.41 C139.53,196.74 143.43,198.39 145.79,199.08 C148.15,199.78 149.91,200.83 149.69,201.42 C149.47,202.01 147.62,207.56 145.56,213.75 L 141.83 225.00 L 129.92 225.00 C120.30,225.00 118.00,224.73 118.00,223.58 ZM 90.50 212.57 C87.20,211.81 83.23,210.69 81.67,210.09 C76.29,208.00 69.98,202.88 67.99,198.99 C64.37,191.88 65.88,182.30 71.22,178.56 C74.34,176.37 79.09,176.63 89.50,179.55 C95.75,181.31 102.25,182.27 110.76,182.69 C122.44,183.28 123.16,183.44 125.96,186.11 C133.21,193.04 130.23,204.83 119.78,210.54 C115.24,213.01 113.23,213.45 105.50,213.68 C100.38,213.84 93.91,213.36 90.50,212.57 ZM 123.45 188.94 C121.83,187.15 120.00,187.15 120.00,188.92 C120.00,189.37 121.01,191.02 122.25,192.60 C124.49,195.45 124.50,195.46 124.83,193.15 C125.01,191.88 124.39,189.98 123.45,188.94 ZM 111.27 147.01 C89.92,144.64 67.90,132.64 61.40,119.80 C58.36,113.80 58.16,105.57 60.93,100.14 C70.64,81.11 108.37,74.41 140.00,86.10 C147.89,89.02 153.73,92.65 159.86,98.43 C175.76,113.46 172.85,131.12 152.87,140.86 C141.43,146.44 126.31,148.67 111.27,147.01 ZM 163.13 104.77 C160.69,100.24 158.30,97.80 156.65,98.14 C155.24,98.44 155.55,99.36 158.58,103.85 C161.17,107.70 162.50,108.90 163.28,108.12 C164.05,107.35 164.01,106.40 163.13,104.77 ZM 172.65 134.53 C170.38,132.81 171.05,131.63 176.06,128.46 C181.75,124.87 182.35,125.40 178.90,131.00 C175.54,136.47 175.35,136.58 172.65,134.53 ZM 170.51 127.80 C170.93,126.54 171.49,122.86 171.73,119.64 C172.31,112.18 170.11,106.17 164.59,100.15 C161.62,96.91 160.89,95.56 161.93,95.20 C162.71,94.93 165.31,92.92 167.69,90.71 C180.52,78.89 182.86,53.99 172.42,40.31 C168.25,34.84 164.43,33.01 157.21,33.00 C146.59,33.00 138.61,39.87 133.56,53.39 C131.42,59.09 131.00,75.27 132.90,78.81 C134.33,81.49 134.32,81.49 123.00,79.50 C118.32,78.68 112.33,78.00 109.67,78.00 L 104.84 78.00 L 106.82 74.75 C111.85,66.52 113.40,52.62 110.42,42.38 C107.40,31.97 98.54,24.00 89.98,24.00 C85.38,24.00 76.79,28.28 73.47,32.22 C66.22,40.83 62.85,53.67 64.82,65.15 C66.20,73.19 68.00,77.21 72.23,81.67 L 75.23 84.83 L 72.05 86.47 C67.26,88.95 61.09,94.91 58.93,99.14 C57.86,101.23 57.00,104.95 57.00,107.46 C57.00,109.96 56.76,112.00 56.48,112.00 C54.98,112.00 38.02,96.63 37.41,94.73 C37.01,93.50 36.71,89.73 36.73,86.34 C36.77,79.28 39.41,72.66 46.38,62.08 C48.76,58.46 53.46,49.88 56.81,43.00 C63.22,29.89 69.27,21.85 75.75,17.85 C78.74,16.00 80.83,15.56 86.48,15.61 C97.31,15.71 103.09,17.52 110.75,23.22 C114.46,25.99 119.06,28.91 120.96,29.72 C126.69,32.17 134.54,31.57 142.73,28.07 C155.32,22.67 167.87,23.00 177.27,28.96 C183.32,32.79 187.25,40.87 190.42,56.00 C191.74,62.33 193.59,70.20 194.52,73.50 C195.45,76.80 197.13,83.93 198.26,89.35 C200.25,98.88 200.27,99.43 198.60,106.48 C196.59,115.01 195.16,116.61 185.71,120.86 C181.98,122.53 176.86,125.30 174.33,127.01 C169.93,129.98 169.77,130.01 170.51,127.80 ZM 194.75 110.03 C196.06,108.09 196.99,105.20 196.99,103.10 L 196.97 99.50 L 193.52 105.50 C191.62,108.80 190.05,112.10 190.03,112.83 C189.98,114.99 192.33,113.60 194.75,110.03 ZM 118.00 37.70 C118.00,36.26 116.05,34.00 114.80,34.00 C113.83,34.00 113.73,37.40 114.67,38.33 C115.81,39.48 118.00,39.06 118.00,37.70 ZM 179.56 33.45 C178.68,32.10 177.06,31.00 175.98,31.00 C173.25,31.00 173.48,31.87 177.25,35.77 C179.77,38.37 180.57,38.76 180.83,37.51 C181.02,36.63 180.44,34.80 179.56,33.45 Z" fill="rgb(245,218,38)"/>
</g>
</svg>